<svg>
<defs>

<symbol id="logo"  fill="none" xmlns="http://www.w3.org/2000/svg">
<g clip-path="url(#clip0_753_40)">
<path d="M56.3 30.5H59.8L61.1 26.7H68L69.3 30.5H72.9L66.7 12.6H62.5L56.3 30.5ZM62 23.8L64.5 16.3L67 23.8H62Z" fill="#232E35"/>
<path d="M74.5 30.5H77.6V12.3H74.5V30.5Z" fill="#232E35"/>
<path d="M86.8 30.8C88.1 30.8 89.3 30.5 90.3 29.9C91.3 29.3 92 28.5 92.4 27.6L89.9 26.4C89.6 26.9 89.2 27.3 88.7 27.6C88.2 27.9 87.6 28.1 86.9 28.1C86 28.1 85.2 27.8 84.5 27.2C83.8 26.6 83.5 25.9 83.4 24.9H92.8C92.9 24.7 92.9 24.5 92.9 24.3C92.9 24.1 92.9 23.8 92.9 23.6C92.9 22.4 92.7 21.4 92.2 20.4C91.7 19.4 91 18.7 90 18.1C89.1 17.5 87.9 17.2 86.5 17.2C85.3 17.2 84.2 17.5 83.2 18.1C82.2 18.7 81.4 19.5 80.9 20.5C80.3 21.5 80.1 22.7 80.1 24C80.1 25.3 80.4 26.4 80.9 27.5C81.5 28.5 82.2 29.4 83.3 30C84.3 30.5 85.4 30.8 86.8 30.8ZM86.5 19.7C87.3 19.7 88 20 88.6 20.5C89.2 21 89.5 21.6 89.5 22.4H83.4C83.6 21.5 83.9 20.9 84.5 20.4C85.1 20 85.8 19.7 86.5 19.7Z" fill="#232E35"/>
<path d="M93.9 30.5H97.6L100.3 26.4L103 30.5H106.7L102.2 23.9L106.8 17.4H103.1L100.4 21.5L97.6 17.4H93.9L98.5 23.9L93.9 30.5Z" fill="#232E35"/>
<path d="M109.9 30.5H113.1V27.1H109.9V30.5Z" fill="#232E35"/>
<path d="M20 0.5C9 0.5 0 9.5 0 20.5C0 31.5 9 40.5 20 40.5C31 40.5 40 31.5 40 20.5C40 9.5 31 0.5 20 0.5ZM11.8 28C9.6 28 7.8 26.2 7.8 24C7.8 21.8 9.6 20 11.8 20C14 20 15.8 21.8 15.8 24C15.8 26.2 14 28 11.8 28ZM28.5 26.9C26.7 28 24.3 27.3 23.2 25.5L17.6 15.8C16.5 14 17.2 11.6 19 10.5C20.8 9.4 23.2 10.1 24.3 11.9L29.9 21.6C31 23.5 30.3 25.9 28.5 26.9Z" fill="#232E35"/>
</g>
<defs>
<clipPath id="clip0_753_40">
<rect width="114" height="41" fill="white"/>
</clipPath>
</defs>
</symbol>

<symbol id="moon-icon"  fill="none" xmlns="http://www.w3.org/2000/svg">
<path d="M3.35449 17.5L3.504 16.7651C3.20486 16.7042 2.89868 16.8307 2.72977 17.085C2.56086 17.3393 2.56291 17.6706 2.73497 17.9227L3.35449 17.5ZM11.3545 3.5L11.3742 2.75026C11.0683 2.74222 10.7881 2.92087 10.6664 3.20166C10.5446 3.48244 10.6057 3.80903 10.8207 4.02685L11.3545 3.5ZM21.1045 12.5C21.1045 7.18571 16.7618 2.89187 11.3742 2.75026L11.3348 4.24974C15.9486 4.37102 19.6045 8.03726 19.6045 12.5H21.1045ZM11.3545 22.25C16.8956 22.25 21.1045 17.8776 21.1045 12.5H19.6045C19.6045 17.0653 16.0511 20.75 11.3545 20.75V22.25ZM2.73497 17.9227C4.54749 20.5791 7.90248 22.25 11.3545 22.25V20.75C8.34871 20.75 5.48025 19.2847 3.97401 17.0773L2.73497 17.9227ZM3.20499 18.2349C7.54605 19.118 11.2664 16.8566 13.1176 13.6399C14.9712 10.4189 15.0076 6.13357 11.8883 2.97315L10.8207 4.02685C13.3843 6.62418 13.3967 10.1476 11.8175 12.8917C10.236 15.6399 7.11497 17.4996 3.504 16.7651L3.20499 18.2349Z" fill="#232E35"/>
</symbol>

<symbol id="instagram-icon" fill="none" xmlns="http://www.w3.org/2000/svg">
<path d="M12 7C11.0111 7 10.0444 7.29324 9.22215 7.84265C8.3999 8.39206 7.75904 9.17295 7.3806 10.0866C7.00216 11.0002 6.90315 12.0055 7.09607 12.9755C7.289 13.9454 7.7652 14.8363 8.46447 15.5355C9.16373 16.2348 10.0546 16.711 11.0245 16.9039C11.9945 17.0969 12.9998 16.9978 13.9134 16.6194C14.827 16.241 15.6079 15.6001 16.1573 14.7779C16.7068 13.9556 17 12.9889 17 12C17 10.6739 16.4732 9.40215 15.5355 8.46447C14.5979 7.52678 13.3261 7 12 7ZM12 15C11.4067 15 10.8266 14.8241 10.3333 14.4944C9.83994 14.1648 9.45542 13.6962 9.22836 13.1481C9.0013 12.5999 8.94189 11.9967 9.05764 11.4147C9.1734 10.8328 9.45912 10.2982 9.87868 9.87868C10.2982 9.45912 10.8328 9.1734 11.4147 9.05764C11.9967 8.94189 12.5999 9.0013 13.1481 9.22836C13.6962 9.45542 14.1648 9.83994 14.4944 10.3333C14.8241 10.8266 15 11.4067 15 12C15 12.7956 14.6839 13.5587 14.1213 14.1213C13.5587 14.6839 12.7956 15 12 15ZM17 6C16.8022 6 16.6089 6.05865 16.4444 6.16853C16.28 6.27841 16.1518 6.43459 16.0761 6.61732C16.0004 6.80004 15.9806 7.00111 16.0192 7.19509C16.0578 7.38907 16.153 7.56725 16.2929 7.70711C16.4327 7.84696 16.6109 7.9422 16.8049 7.98079C16.9989 8.01937 17.2 7.99957 17.3827 7.92388C17.5654 7.84819 17.7216 7.72002 17.8315 7.55557C17.9414 7.39112 18 7.19778 18 7C18 6.73478 17.8946 6.48043 17.7071 6.29289C17.5196 6.10536 17.2652 6 17 6ZM21.94 8.24C21.9234 7.38542 21.7611 6.53995 21.46 5.74C21.1808 5.01207 20.7516 4.35099 20.2003 3.7997C19.649 3.2484 18.9879 2.81922 18.26 2.54C17.4601 2.2389 16.6146 2.07657 15.76 2.06C14.79 2 14.47 2 12 2C9.53 2 9.21 2 8.24 2.06C7.38542 2.07657 6.53995 2.2389 5.74 2.54C5.01207 2.81922 4.35099 3.2484 3.7997 3.7997C3.2484 4.35099 2.81922 5.01207 2.54 5.74C2.2389 6.53995 2.07657 7.38542 2.06 8.24C2 9.22 2 9.54 2 12C2 14.46 2 14.78 2.06 15.76C2.07657 16.6146 2.2389 17.4601 2.54 18.26C2.81922 18.9879 3.2484 19.649 3.7997 20.2003C4.35099 20.7516 5.01207 21.1808 5.74 21.46C6.53995 21.7611 7.38542 21.9234 8.24 21.94C9.24 21.94 9.53 22 12 22C14.47 22 14.79 22 15.76 21.94C16.6146 21.9234 17.4601 21.7611 18.26 21.46C18.9879 21.1808 19.649 20.7516 20.2003 20.2003C20.7516 19.649 21.1808 18.9879 21.46 18.26C21.7611 17.4601 21.9234 16.6146 21.94 15.76C21.94 14.76 22 14.46 22 12C22 9.54 22 9.22 21.94 8.24ZM19.94 15.67C19.9225 16.3046 19.8043 16.9324 19.59 17.53C19.4128 18.0023 19.1327 18.4293 18.77 18.78C18.4214 19.1428 17.9936 19.4201 17.52 19.59C16.921 19.8131 16.289 19.9348 15.65 19.95C14.71 19.95 14.42 20 11.99 20C9.56 20 9.28 20 8.34 20C7.70202 19.9835 7.07075 19.8654 6.47 19.65C5.99766 19.4728 5.57067 19.1927 5.22 18.83C4.85715 18.4814 4.57992 18.0536 4.41 17.58C4.1878 16.9842 4.06615 16.3557 4.05 15.72C4.05 14.72 4.05 14.47 4.05 12.05C4.05 9.63 4.05 9.34 4.05 8.38C4.06724 7.74121 4.18884 7.10954 4.41 6.51C4.58256 6.04063 4.85953 5.61662 5.22 5.27C5.56858 4.90715 5.99641 4.62992 6.47 4.46C7.06899 4.2369 7.70099 4.11523 8.34 4.1C9.28 4 9.57 4 12 4C14.43 4 14.72 4 15.66 4C16.3021 4.01633 16.9373 4.13794 17.54 4.36C18.0094 4.53256 18.4334 4.80953 18.78 5.17C19.1428 5.51858 19.4201 5.94641 19.59 6.42C19.8348 7.02856 19.9735 7.67458 20 8.33C20 9.33 20.05 9.58 20.05 12C20.05 14.42 20 14.71 20 15.67H19.94Z" fill="#232E35"/>
</symbol>

<symbol id="github-icon" fill="none" xmlns="http://www.w3.org/2000/svg">
<path d="M10.0703 20.5029C10.0703 20.3563 10.038 20.2114 9.97578 20.0786C9.91353 19.9458 9.82284 19.8283 9.71014 19.7345C9.59743 19.6407 9.46546 19.5728 9.32359 19.5356C9.18171 19.4984 9.03341 19.493 8.88917 19.5195C7.58009 19.7597 5.92726 19.7959 5.4878 18.5615C5.10461 17.6055 4.46987 16.771 3.65089 16.1465C3.59246 16.1147 3.53677 16.0781 3.48439 16.0371C3.41272 15.8481 3.2854 15.6852 3.11925 15.5699C2.95311 15.4547 2.75592 15.3925 2.55372 15.3916H2.54884C2.28444 15.3915 2.03077 15.4962 1.84335 15.6827C1.65594 15.8692 1.55004 16.1223 1.54884 16.3867C1.54493 17.2022 2.35984 17.7246 2.69044 17.9014C3.08029 18.2931 3.39359 18.7541 3.61427 19.2608C3.97853 20.2842 5.03712 21.8369 8.08009 21.6368C8.08109 21.6719 8.08204 21.7051 8.08253 21.7354L8.08692 22.003C8.08692 22.2682 8.19228 22.5225 8.37982 22.7101C8.56735 22.8976 8.82171 23.003 9.08692 23.003C9.35214 23.003 9.60649 22.8976 9.79403 22.7101C9.98157 22.5225 10.0869 22.2682 10.0869 22.003L10.082 21.6846C10.0772 21.4951 10.0703 21.2207 10.0703 20.5029ZM20.7373 5.37691C20.7691 5.25191 20.8003 5.11324 20.8277 4.95699C20.9894 3.84258 20.8484 2.70518 20.4195 1.66399C20.3653 1.52825 20.2822 1.40599 20.1758 1.30579C20.0694 1.20559 19.9425 1.12986 19.8037 1.08392C19.4477 0.963798 18.1333 0.727468 15.6197 2.33392C13.5302 1.84221 11.3551 1.84221 9.26565 2.33392C6.76222 0.750998 5.4546 0.965798 5.10206 1.07908C4.95993 1.12316 4.82946 1.19848 4.72021 1.29954C4.61097 1.40059 4.52572 1.5248 4.47071 1.66308C4.03301 2.72426 3.89355 3.88485 4.06739 5.01952C4.09181 5.14745 4.11817 5.26562 4.14552 5.37401C3.31709 6.47745 2.87583 7.82337 2.89015 9.20311C2.88745 9.51094 2.90163 9.8187 2.93263 10.125C3.26663 14.7275 6.26663 16.1094 8.35694 16.584C8.31349 16.709 8.27394 16.8428 8.23878 16.9844C8.17612 17.2417 8.21805 17.5133 8.35538 17.7397C8.49271 17.9662 8.71422 18.1289 8.97135 18.1922C9.22848 18.2556 9.50024 18.2144 9.72703 18.0776C9.95382 17.9409 10.1171 17.7198 10.1812 17.4629C10.2448 17.1297 10.4079 16.8236 10.6489 16.5849C10.7947 16.4573 10.9002 16.2901 10.9527 16.1036C11.0052 15.9172 11.0023 15.7194 10.9445 15.5346C10.8866 15.3497 10.7763 15.1856 10.6269 15.0622C10.4775 14.9389 10.2955 14.8616 10.103 14.8398C6.64894 14.4453 5.14942 13.0381 4.92384 9.9414C4.89885 9.69613 4.88761 9.44965 4.89015 9.20312C4.87411 8.21977 5.19898 7.2612 5.80958 6.49023C5.87093 6.40985 5.93628 6.3326 6.00538 6.25878C6.12781 6.12178 6.21013 5.9537 6.2433 5.77298C6.27646 5.59227 6.25919 5.40591 6.19338 5.23437C6.12592 5.0539 6.07397 4.868 6.03811 4.6787C5.95664 4.14041 5.98337 3.59129 6.11671 3.06346C6.98585 3.30893 7.80383 3.7085 8.53171 4.24314C8.65208 4.32331 8.78828 4.37667 8.93108 4.39958C9.07388 4.4225 9.21994 4.41444 9.35935 4.37596C11.3805 3.82746 13.5113 3.8278 15.5322 4.37696C15.6724 4.4154 15.8192 4.423 15.9626 4.39923C16.106 4.37545 16.2425 4.32088 16.3628 4.23927C17.0872 3.70241 17.9018 3.29926 18.768 3.04884C18.9008 3.56399 18.9305 4.10029 18.8554 4.62696C18.8192 4.83449 18.7626 5.03796 18.6865 5.23439C18.6207 5.40593 18.6034 5.59229 18.6366 5.773C18.6697 5.95372 18.7521 6.1218 18.8745 6.2588C18.9516 6.34571 19.0288 6.43946 19.0981 6.52735C19.7044 7.28527 20.0238 8.23282 20 9.20311C20.0018 9.46272 19.9893 9.72223 19.9624 9.98045C19.7422 13.0361 18.2368 14.4443 14.7666 14.8398C14.5741 14.8617 14.392 14.9391 14.2427 15.0626C14.0933 15.1861 13.983 15.3503 13.9253 15.5352C13.8675 15.7202 13.8647 15.918 13.9172 16.1045C13.9698 16.2911 14.0754 16.4583 14.2212 16.5859C14.4698 16.8309 14.6333 17.1493 14.6875 17.4941C14.7551 17.7618 14.7861 18.0374 14.7798 18.3135V20.6475C14.77 21.2949 14.77 21.7802 14.77 22.0029C14.77 22.2681 14.8754 22.5225 15.0629 22.71C15.2504 22.8976 15.5048 23.0029 15.77 23.0029C16.0352 23.0029 16.2896 22.8976 16.4771 22.71C16.6647 22.5225 16.77 22.2681 16.77 22.0029C16.77 21.7861 16.77 21.3105 16.7798 20.6631V18.3135C16.7878 17.8713 16.7358 17.4301 16.625 17.0019C16.5933 16.8614 16.5545 16.7225 16.5088 16.5859C18.03 16.3332 19.4123 15.5489 20.4094 14.3725C21.4065 13.1962 21.9539 11.7042 21.9541 10.1621C21.987 9.84352 22.0024 9.52337 22 9.20311C22.0222 7.82188 21.5773 6.47363 20.7373 5.37693L20.7373 5.37691Z" fill="#232E35"/>
</symbol>

<symbol id="twitter-icon" fill="none" xmlns="http://www.w3.org/2000/svg">
<path d="M22.9912 3.95021C22.9913 3.77357 22.9446 3.60007 22.8559 3.44735C22.7671 3.29464 22.6395 3.16817 22.486 3.08084C22.3324 2.9935 22.1585 2.94842 21.9819 2.95017C21.8052 2.95193 21.6322 3.00046 21.4805 3.09083C20.8952 3.43921 20.265 3.70601 19.6075 3.88383C18.6684 3.07806 17.4708 2.63713 16.2335 2.64164C14.876 2.6432 13.5724 3.17223 12.5977 4.11702C11.623 5.06181 11.0537 6.3484 11.0098 7.70512C8.33383 7.27838 5.90848 5.88164 4.19629 3.78126C4.09313 3.65609 3.96138 3.55757 3.81216 3.494C3.66293 3.43043 3.50061 3.40368 3.33887 3.41601C3.17723 3.42932 3.02127 3.4818 2.88447 3.56892C2.74766 3.65603 2.63414 3.77516 2.55371 3.91601C2.14124 4.63582 1.90435 5.44276 1.86226 6.27131C1.82018 7.09986 1.9741 7.92666 2.31152 8.68456L2.30957 8.68651C2.15792 8.77991 2.03277 8.91066 1.94608 9.06625C1.85939 9.22185 1.81407 9.39708 1.81445 9.57519C1.81262 9.72211 1.82143 9.86898 1.84082 10.0146C1.94296 11.2729 2.50061 12.4507 3.40918 13.3271C3.34755 13.4446 3.30993 13.5731 3.29853 13.7052C3.28712 13.8373 3.30217 13.9704 3.34277 14.0967C3.73889 15.3308 4.58127 16.3727 5.70508 17.0185C4.56333 17.46 3.3305 17.614 2.11523 17.4668C1.89031 17.4386 1.66246 17.4876 1.46908 17.6059C1.2757 17.7242 1.12826 17.9047 1.05095 18.1178C0.973638 18.3309 0.971045 18.5639 1.0436 18.7787C1.11615 18.9935 1.25953 19.1772 1.45023 19.2998C3.54033 20.646 5.97391 21.3617 8.46 21.3613C11.2793 21.393 14.03 20.4921 16.2842 18.7988C18.5385 17.1054 20.17 14.7145 20.9248 11.998C21.2779 10.8146 21.4581 9.58648 21.46 8.35157C21.46 8.28614 21.46 8.21876 21.459 8.15138C21.9811 7.58831 22.3856 6.92668 22.6487 6.20527C22.9118 5.48387 23.0282 4.7172 22.9912 3.95021ZM19.6846 7.16212C19.5194 7.35746 19.4358 7.60891 19.4512 7.86427C19.4609 8.02927 19.46 8.19527 19.46 8.35157C19.4579 9.39511 19.305 10.4329 19.0059 11.4326C18.3894 13.744 17.015 15.7817 15.103 17.2192C13.1909 18.6568 10.8517 19.4111 8.46 19.3613C7.60088 19.3616 6.74472 19.2606 5.90922 19.0606C6.97464 18.7172 7.97081 18.1879 8.8516 17.4971C9.01383 17.3693 9.13256 17.1945 9.19149 16.9967C9.25043 16.7988 9.24669 16.5875 9.18078 16.3918C9.11487 16.1961 8.99003 16.0257 8.82338 15.9038C8.65674 15.7819 8.45645 15.7145 8.25 15.7109C7.41884 15.698 6.62513 15.363 6.03613 14.7764C6.18555 14.7481 6.33399 14.7129 6.48145 14.6709C6.69747 14.6094 6.8865 14.477 7.01812 14.295C7.14973 14.1131 7.21627 13.8921 7.20703 13.6677C7.19778 13.4433 7.11328 13.2285 6.96714 13.058C6.821 12.8874 6.62171 12.7711 6.40137 12.7275C5.91891 12.6323 5.46492 12.427 5.07469 12.1277C4.68446 11.8284 4.3685 11.4432 4.15137 11.002C4.3321 11.0266 4.51399 11.0419 4.69629 11.0479C4.91288 11.0511 5.12489 10.9854 5.30167 10.8603C5.47845 10.7351 5.61084 10.5569 5.67969 10.3516C5.74567 10.1443 5.74228 9.92123 5.67002 9.7161C5.59777 9.51096 5.4606 9.33499 5.2793 9.21485C4.83945 8.92182 4.47915 8.52427 4.23066 8.0578C3.98217 7.59134 3.85326 7.07052 3.85547 6.54201C3.85547 6.47561 3.85742 6.4092 3.86133 6.34377C6.1026 8.43402 9.00966 9.66621 12.0703 9.82326C12.2248 9.82934 12.3787 9.80024 12.5203 9.73816C12.6619 9.67607 12.7875 9.58262 12.8877 9.46486C12.9869 9.34596 13.0571 9.20566 13.0929 9.05501C13.1286 8.90437 13.1289 8.74748 13.0937 8.5967C13.0365 8.35806 13.0074 8.11357 13.0068 7.86818C13.0077 7.01271 13.348 6.19254 13.9529 5.58764C14.5578 4.98274 15.3779 4.64251 16.2334 4.64161C16.6735 4.64043 17.1091 4.7305 17.5127 4.90615C17.9163 5.0818 18.279 5.3392 18.5781 5.66212C18.6935 5.7862 18.8386 5.87871 18.9998 5.93085C19.161 5.98299 19.3328 5.99303 19.499 5.96001C19.9098 5.88006 20.3147 5.7724 20.7109 5.63775C20.4407 6.19072 20.0953 6.70369 19.6846 7.16212Z" fill="#232E35"/>
</symbol>

<symbol id="linkedin-icon" viewBox="0 0 24 24" fill="none" xmlns="http://www.w3.org/2000/svg">
<path d="M17.5 8.999C16.6047 8.99862 15.7233 9.22006 14.9346 9.64353C14.8626 9.45396 14.7346 9.29077 14.5677 9.17564C14.4008 9.06052 14.2028 8.99891 14 8.999H10C9.86866 8.99893 9.73859 9.02474 9.61723 9.07497C9.49587 9.1252 9.3856 9.19885 9.29273 9.29173C9.19985 9.3846 9.1262 9.49487 9.07597 9.61623C9.02574 9.73759 8.99993 9.86766 9 9.999V21.999C8.99993 22.1303 9.02574 22.2604 9.07597 22.3818C9.12619 22.5031 9.19985 22.6134 9.29272 22.7063C9.3856 22.7992 9.49587 22.8728 9.61723 22.923C9.73859 22.9733 9.86866 22.9991 10 22.999H14C14.1313 22.9991 14.2614 22.9733 14.3828 22.923C14.5041 22.8728 14.6144 22.7992 14.7073 22.7063C14.8002 22.6134 14.8738 22.5031 14.924 22.3818C14.9743 22.2604 15.0001 22.1303 15 21.999V16.499C15 16.2338 15.1054 15.9794 15.2929 15.7919C15.4804 15.6044 15.7348 15.499 16 15.499C16.2652 15.499 16.5196 15.6044 16.7071 15.7919C16.8946 15.9794 17 16.2338 17 16.499V21.999C16.9999 22.1303 17.0257 22.2604 17.076 22.3818C17.1262 22.5031 17.1999 22.6134 17.2927 22.7063C17.3856 22.7992 17.4959 22.8728 17.6172 22.923C17.7386 22.9733 17.8687 22.9991 18 22.999H22C22.1313 22.9991 22.2614 22.9733 22.3828 22.923C22.5041 22.8728 22.6144 22.7992 22.7073 22.7063C22.8002 22.6134 22.8738 22.5031 22.924 22.3818C22.9743 22.2604 23.0001 22.1303 23 21.999V14.499C22.9982 13.0409 22.4181 11.643 21.3871 10.6119C20.356 9.58086 18.9581 9.00081 17.5 8.999ZM21 20.999H19V16.499C19 15.7034 18.6839 14.9403 18.1213 14.3777C17.5587 13.8151 16.7957 13.499 16 13.499C15.2044 13.499 14.4413 13.8151 13.8787 14.3777C13.3161 14.9403 13 15.7034 13 16.499V20.999H11V10.999H13V11.7021C13.0001 11.9093 13.0646 12.1114 13.1845 12.2804C13.3043 12.4494 13.4737 12.577 13.6692 12.6456C13.8647 12.7142 14.0767 12.7204 14.2759 12.6634C14.4751 12.6063 14.6517 12.4888 14.7813 12.3271C15.23 11.7572 15.8456 11.3416 16.542 11.1384C17.2384 10.9352 17.9809 10.9545 18.6657 11.1937C19.3506 11.4329 19.9437 11.88 20.3622 12.4726C20.7806 13.0651 21.0036 13.7736 21 14.499V20.999ZM7 8.999H3C2.86866 8.99893 2.73859 9.02474 2.61723 9.07497C2.49587 9.1252 2.3856 9.19885 2.29273 9.29173C2.19985 9.3846 2.1262 9.49487 2.07597 9.61623C2.02574 9.73759 1.99993 9.86766 2 9.999V21.999C1.99993 22.1303 2.02574 22.2604 2.07597 22.3818C2.12619 22.5031 2.19985 22.6134 2.29272 22.7063C2.3856 22.7992 2.49587 22.8728 2.61723 22.923C2.73859 22.9733 2.86866 22.9991 3 22.999H7C7.13134 22.9991 7.26142 22.9733 7.38277 22.923C7.50413 22.8728 7.6144 22.7992 7.70728 22.7063C7.80015 22.6134 7.87381 22.5031 7.92404 22.3818C7.97426 22.2604 8.00008 22.1303 8 21.999V9.999C8.00008 9.86766 7.97426 9.73759 7.92403 9.61623C7.87381 9.49487 7.80015 9.3846 7.70728 9.29173C7.6144 9.19885 7.50413 9.1252 7.38277 9.07497C7.26141 9.02474 7.13134 8.99893 7 8.999ZM6 20.999H4V10.999H6V20.999ZM5.01465 1.542C4.57701 1.5158 4.13862 1.5789 3.72613 1.72745C3.31364 1.87599 2.93567 2.10689 2.61522 2.40609C2.29476 2.7053 2.03852 3.06656 1.86206 3.4679C1.6856 3.86924 1.59262 4.30229 1.58878 4.74069C1.58493 5.1791 1.6703 5.61371 1.83969 6.01808C2.00907 6.42246 2.25894 6.78816 2.5741 7.09294C2.88925 7.39772 3.26311 7.63522 3.67293 7.79098C4.08275 7.94674 4.51997 8.01752 4.958 7.999H4.98632C5.42512 8.02506 5.86462 7.96138 6.27798 7.81185C6.69133 7.66232 7.06986 7.43007 7.39042 7.12931C7.71099 6.82854 7.96686 6.46557 8.14241 6.06258C8.31796 5.65958 8.40949 5.22503 8.41142 4.78546C8.41335 4.34589 8.32563 3.91055 8.15362 3.50603C7.98162 3.10151 7.72894 2.73631 7.41102 2.43275C7.09311 2.12918 6.71663 1.89363 6.30461 1.74047C5.89258 1.58732 5.45365 1.51979 5.01464 1.542H5.01465ZM4.98633 5.999H4.958C4.78507 6.02 4.60964 6.00378 4.44349 5.95143C4.27734 5.89908 4.1243 5.81181 3.99464 5.69547C3.86498 5.57912 3.7617 5.4364 3.69172 5.27688C3.62173 5.11735 3.58667 4.9447 3.58887 4.77051C3.58887 4.02441 4.14844 3.54199 5.01465 3.54199C5.18935 3.5187 5.36701 3.53312 5.53567 3.58428C5.70432 3.63543 5.86006 3.72213 5.99239 3.83854C6.12471 3.95495 6.23056 4.09837 6.30279 4.25913C6.37502 4.41989 6.41197 4.59427 6.41113 4.77051C6.41113 5.5166 5.85156 5.999 4.98633 5.999Z" fill="#232E35"/>
</symbol>
<symbol id="lines-vector" fill="none" xmlns="http://www.w3.org/2000/svg">
<path opacity="0.7" d="M2.80345 51.8697L262.09 -134.416M1.17712 70.609L276.828 -127.774M5.82487 84.7034L289.325 -119.463M13.8773 96.2964L303.733 -112.573M19.3259 109.805L318.307 -105.806M26.3894 122.124L334 -99.8618M33.3691 134.507L345.143 -90.5662M40.3625 146.873L359.61 -83.7165M47.6961 158.995L370.682 -74.3626M53.7216 172.078L379.289 -63.1804M61.0689 184.182L389.465 -53.1658M69.0981 195.789L399.43 -42.9965M75.2673 208.751L393.901 -21.3809" stroke="white" stroke-width="2" stroke-miterlimit="10" stroke-linecap="round" stroke-linejoin="round" stroke-dasharray="0.3 0.3"/>
</symbol>




</defs>
</svg>